<svg width="12" height="21" viewBox="0 0 12 21" fill="none" xmlns="http://www.w3.org/2000/svg">
<path d="M0.239372 11.0763L9.95249 20.7625C10.2707 21.0797 10.786 21.0792 11.1037 20.7609C11.4211 20.4426 11.4203 19.9271 11.102 19.6097L1.96707 10.5L11.1024 1.39027C11.4206 1.07281 11.4214 0.557611 11.104 0.23933C10.9447 0.0797806 10.7361 3.8147e-06 10.5274 3.8147e-06C10.3193 3.8147e-06 10.1115 0.0792465 9.95253 0.23769L0.239372 9.9237C0.0860977 10.0762 8.67844e-05 10.2837 8.67844e-05 10.5C8.67844e-05 10.7162 0.0863438 10.9235 0.239372 11.0763Z" fill="#285751"/>
</svg>
